<svg width="96" height="96" viewBox="0 0 96 96" fill="none" xmlns="http://www.w3.org/2000/svg">
  <path d="M31 17H65L80 48L65 79H31L16 48L31 17Z" fill="#E8B84F" stroke="#2B2B2B" stroke-width="3"/>
  <path d="M37 40C37 33.9249 41.9249 29 48 29C54.0751 29 59 33.9249 59 40V56C59 62.0751 54.0751 67 48 67C41.9249 67 37 62.0751 37 56V40Z" fill="#F7F3EC" stroke="#2B2B2B" stroke-width="3"/>
  <path d="M31 34C31 29.0294 35.0294 25 40 25H42V41H40C35.0294 41 31 36.9706 31 32V34Z" fill="#DDE7D7" stroke="#2B2B2B" stroke-width="3" stroke-linejoin="round"/>
  <path d="M54 25H56C60.9706 25 65 29.0294 65 34V32C65 36.9706 60.9706 41 56 41H54V25Z" fill="#DDE7D7" stroke="#2B2B2B" stroke-width="3" stroke-linejoin="round"/>
  <path d="M42 38H54" stroke="#2B2B2B" stroke-width="3" stroke-linecap="round"/>
  <path d="M42 48H54" stroke="#2B2B2B" stroke-width="3" stroke-linecap="round"/>
  <path d="M42 58H54" stroke="#2B2B2B" stroke-width="3" stroke-linecap="round"/>
</svg>
