<svg width="128" height="128" viewBox="0 0 128 128" fill="none" xmlns="http://www.w3.org/2000/svg">
  <path d="M64 20L108 44V84L64 108L20 84V44L64 20Z" fill="#F7F3EC" stroke="#2B2B2B" stroke-width="4"/>
  <path d="M38 39L58 53L46 72L30 61L38 39Z" fill="#C56A4A" stroke="#2B2B2B" stroke-width="4" stroke-linejoin="round"/>
  <path d="M90 39L70 53L82 72L98 61L90 39Z" fill="#C56A4A" stroke="#2B2B2B" stroke-width="4" stroke-linejoin="round"/>
  <path d="M42 78L55 55H73L86 78L64 96L42 78Z" fill="#7C3E2D" stroke="#2B2B2B" stroke-width="4" stroke-linejoin="round"/>
  <path d="M53 73L64 80L75 73" stroke="#F7F3EC" stroke-width="4" stroke-linecap="round"/>
  <circle cx="53" cy="63" r="4" fill="#F7F3EC"/>
  <circle cx="75" cy="63" r="4" fill="#F7F3EC"/>
  <path d="M64 31L92 81H36L64 31Z" stroke="#C56A4A" stroke-width="4" stroke-dasharray="5 5"/>
</svg>
