<svg width="96" height="96" viewBox="0 0 96 96" fill="none" xmlns="http://www.w3.org/2000/svg">
  <defs>
    <linearGradient id="beeHex" x1="17" y1="16" x2="79" y2="80" gradientUnits="userSpaceOnUse">
      <stop stop-color="#E8B84F"/>
      <stop offset="1" stop-color="#D4A043"/>
    </linearGradient>
  </defs>
  <path d="M31 14H65L83 48L65 82H31L13 48L31 14Z" fill="url(#beeHex)" stroke="#2B2B2B" stroke-width="3"/>
  <path d="M38 40C38 33.3726 43.3726 28 50 28C56.6274 28 62 33.3726 62 40V57C62 63.6274 56.6274 69 50 69C43.3726 69 38 63.6274 38 57V40Z" fill="#F7F3EC" stroke="#2B2B2B" stroke-width="3"/>
  <path d="M33 36C33 29.9249 37.9249 25 44 25H45V43H44C37.9249 43 33 38.0751 33 32V36Z" fill="#DDE7D7" stroke="#2B2B2B" stroke-width="3" stroke-linejoin="round"/>
  <path d="M51 25H52C58.0751 25 63 29.9249 63 36V32C63 38.0751 58.0751 43 52 43H51V25Z" fill="#DDE7D7" stroke="#2B2B2B" stroke-width="3" stroke-linejoin="round"/>
  <path d="M45 37H55" stroke="#2B2B2B" stroke-width="3" stroke-linecap="round"/>
  <path d="M45 47H55" stroke="#2B2B2B" stroke-width="3" stroke-linecap="round"/>
  <path d="M45 57H55" stroke="#2B2B2B" stroke-width="3" stroke-linecap="round"/>
</svg>
