<svg width="420" height="120" viewBox="0 0 420 120" fill="none" xmlns="http://www.w3.org/2000/svg">
  <rect width="420" height="120" rx="24" fill="#F7F3EC"/>
  <g transform="translate(18 12)">
    <path d="M31 14H65L83 48L65 82H31L13 48L31 14Z" fill="#E8B84F" stroke="#2B2B2B" stroke-width="3"/>
    <path d="M38 40C38 33.3726 43.3726 28 50 28C56.6274 28 62 33.3726 62 40V57C62 63.6274 56.6274 69 50 69C43.3726 69 38 63.6274 38 57V40Z" fill="#F7F3EC" stroke="#2B2B2B" stroke-width="3"/>
    <path d="M33 36C33 29.9249 37.9249 25 44 25H45V43H44C37.9249 43 33 38.0751 33 32V36Z" fill="#DDE7D7" stroke="#2B2B2B" stroke-width="3" stroke-linejoin="round"/>
    <path d="M51 25H52C58.0751 25 63 29.9249 63 36V32C63 38.0751 58.0751 43 52 43H51V25Z" fill="#DDE7D7" stroke="#2B2B2B" stroke-width="3" stroke-linejoin="round"/>
    <path d="M45 37H55" stroke="#2B2B2B" stroke-width="3" stroke-linecap="round"/>
    <path d="M45 47H55" stroke="#2B2B2B" stroke-width="3" stroke-linecap="round"/>
    <path d="M45 57H55" stroke="#2B2B2B" stroke-width="3" stroke-linecap="round"/>
  </g>
  <text x="126" y="50" fill="#2B2B2B" font-family="Fraunces, Georgia, serif" font-size="34" font-weight="600">Boho Digital</text>
  <text x="126" y="79" fill="#5E6E56" font-family="Inter, Arial, sans-serif" font-size="16">Bohemian Digital Marketing &amp; SEO</text>
  <text x="126" y="100" fill="#7C3E2D" font-family="'IBM Plex Mono', monospace" font-size="12" letter-spacing="0">ORGANIC GROWTH, ENGINEERED BEAUTIFULLY.</text>
</svg>
