<svg xmlns="http://www.w3.org/2000/svg" viewBox="0 0 1200 860" role="img" aria-labelledby="title desc">
  <title id="title">Placeholder desert brutalist hero scene</title>
  <desc id="desc">Abstract architectural desert forms used as a temporary hero image placeholder.</desc>
  <!-- TODO: Replace with licensed or final generated architecture image asset. -->
  <defs>
    <linearGradient id="bg" x1="0%" y1="0%" x2="100%" y2="100%">
      <stop offset="0%" stop-color="#f8f1e7"/>
      <stop offset="100%" stop-color="#e8d9c5"/>
    </linearGradient>
  </defs>
  <rect width="1200" height="860" rx="36" fill="url(#bg)"/>
  <circle cx="230" cy="136" r="94" fill="#d8a94a" opacity=".24"/>
  <circle cx="1018" cy="170" r="114" fill="#b45c3d" opacity=".18"/>
  <path d="M132 700c120-184 228-280 356-280 168 0 188 170 336 170 74 0 148-34 244-120v230H132Z" fill="#d8c9b7"/>
  <rect x="170" y="244" width="308" height="386" rx="28" fill="#fdfaf4" stroke="#17130f" stroke-opacity=".08"/>
  <rect x="378" y="170" width="302" height="460" rx="24" fill="#d8c9b7"/>
  <rect x="624" y="250" width="246" height="380" rx="24" fill="#fffdf8"/>
  <rect x="770" y="214" width="226" height="416" rx="22" fill="#303827"/>
  <path d="M200 316h178" stroke="#b45c3d" stroke-width="10" stroke-linecap="round"/>
  <path d="M652 330h148" stroke="#b45c3d" stroke-width="12" stroke-linecap="round"/>
  <path d="M818 330h118" stroke="#f8f1e7" stroke-width="14" stroke-linecap="round"/>
</svg>


