<svg xmlns="http://www.w3.org/2000/svg" viewBox="0 0 320 320" role="img" aria-labelledby="title desc">
  <title id="title">Boho Digital bee mark</title>
  <desc id="desc">A geometric bee inside a honey-toned hexagon.</desc>
  <defs>
    <linearGradient id="hex" x1="0" y1="0" x2="1" y2="1">
      <stop offset="0" stop-color="#e8b84f"/>
      <stop offset="1" stop-color="#d4a043"/>
    </linearGradient>
  </defs>
  <path d="M160 18 273 83v154L160 302 47 237V83Z" fill="url(#hex)" stroke="#2f3a2d" stroke-width="12"/>
  <path d="M111 119c11-25 34-38 49-38s38 13 49 38h-98Z" fill="#2f3a2d"/>
  <ellipse cx="160" cy="168" rx="60" ry="66" fill="#2f3a2d"/>
  <path d="M122 137c-26-30-59-35-74-23-14 12-12 38 7 56 19 18 49 18 67-1" fill="#eef1ea" fill-opacity=".86" stroke="#2f3a2d" stroke-width="8"/>
  <path d="M198 137c26-30 59-35 74-23 14 12 12 38-7 56-19 18-49 18-67-1" fill="#eef1ea" fill-opacity=".86" stroke="#2f3a2d" stroke-width="8"/>
  <path d="M123 147h74M119 179h82M126 211h68" stroke="#e8b84f" stroke-linecap="round" stroke-width="14"/>
  <circle cx="160" cy="171" r="14" fill="#f7f3ec"/>
  <path d="M144 246c8 11 20 17 32 17s24-6 32-17" fill="none" stroke="#2f3a2d" stroke-linecap="round" stroke-width="10"/>
</svg>
