<svg xmlns="http://www.w3.org/2000/svg" width="420" height="320" viewBox="0 0 420 320">
  <g fill="none" stroke="#5e6e56" stroke-linecap="round" stroke-width="2">
    <path d="M44 302c18-56 36-96 54-118 12-14 24-23 38-30"/>
    <path d="M120 210c-22-12-38-29-46-51"/>
    <path d="M132 182c-10-18-12-38-7-57"/>
    <path d="M154 160c18-9 30-21 36-37"/>
    <path d="M174 132c6-17 7-35 2-53"/>
    <path d="M86 246c18-2 33 1 45 10"/>
    <path d="M214 264c14-45 30-74 47-91 13-14 27-21 43-28"/>
    <path d="M250 199c-17-9-30-23-39-42"/>
    <path d="M270 171c-8-15-11-31-9-48"/>
    <path d="M298 146c15-8 27-18 35-31"/>
    <path d="M314 120c4-14 5-29 1-44"/>
    <path d="M238 225c16-2 30 1 42 9"/>
  </g>
</svg>
